<?xml version="1.0" encoding="utf-8"?>
<!-- Generator: Adobe Illustrator 16.0.0, SVG Export Plug-In . SVG Version: 6.00 Build 0)  -->
<!DOCTYPE svg PUBLIC "-//W3C//DTD SVG 1.1//EN" "http://www.w3.org/Graphics/SVG/1.1/DTD/svg11.dtd">
<svg version="1.1" id="Layer_1" xmlns="http://www.w3.org/2000/svg" xmlns:xlink="http://www.w3.org/1999/xlink" x="0px" y="0px"
	 width="1261.322px" height="1261.322px" viewBox="0 0 1261.322 1261.322" enable-background="new 0 0 1261.322 1261.322"
	 xml:space="preserve">
<g>
	<g>
		<path fill="#FDE733" stroke="#FF4D30" stroke-width="11.3386" stroke-miterlimit="10" d="M552.635,197.263
			c34.772-60.228,121.705-60.228,156.477,0l204.38,353.997l204.38,353.997c34.772,60.228-8.693,135.513-78.238,135.513h-408.76
			h-408.76c-69.545,0-113.011-75.285-78.238-135.513l204.38-353.997L552.635,197.263z"/>
		<path fill="#FF4D30" d="M1085.4,924.002L676.643,216.009c-9.554-16.545-26.662-26.424-45.77-26.424
			c-19.105,0-36.213,9.879-45.767,26.424L176.345,924.002c-9.551,16.545-9.551,36.304,0.002,52.849
			c9.552,16.547,26.659,26.424,45.767,26.424h817.518c19.105,0,36.216-9.877,45.77-26.424
			C1094.954,960.306,1094.954,940.547,1085.4,924.002z M229.288,946.283l401.585-695.564l401.587,695.564H229.288z"/>
	</g>
	<g>
		<g>
			<g>
				<circle fill="#FF4D30" cx="630.874" cy="482.09" r="59.879"/>
			</g>
			<g>
				<circle fill="#FF4D30" cx="630.873" cy="765.156" r="32.151"/>
			</g>
			<g>
				<polygon fill="#FF4D30" points="570.994,482.09 599.332,771.383 662.619,770.011 690.753,482.09 				"/>
			</g>
		</g>
		<g>
			<circle fill="#FF4D30" cx="630.874" cy="866.479" r="38.786"/>
		</g>
	</g>
</g>
</svg>
